<svg width="40" height="40" viewBox="0 0 40 40" fill="none" xmlns="http://www.w3.org/2000/svg">
<rect width="40" height="40" rx="8" fill="black"/>
<path d="M19.875 27.7402C19.9417 27.7402 20.0083 27.7236 20.075 27.6902C20.1417 27.6569 20.1917 27.6236 20.225 27.5902L28.425 19.3902C28.625 19.1902 28.771 18.9652 28.863 18.7152C28.955 18.4652 29.0007 18.2152 29 17.9652C29 17.6986 28.9543 17.4442 28.863 17.2022C28.7717 16.9602 28.6257 16.7479 28.425 16.5652L24.175 12.3152C23.9917 12.1152 23.779 11.9696 23.537 11.8782C23.295 11.7869 23.0413 11.7409 22.776 11.7402C22.526 11.7402 22.276 11.7862 22.026 11.8782C21.776 11.9702 21.551 12.1159 21.351 12.3152L21.076 12.5902L22.926 14.4652C23.176 14.6986 23.3593 14.9652 23.476 15.2652C23.5927 15.5652 23.651 15.8819 23.651 16.2152C23.651 16.9152 23.4137 17.5029 22.939 17.9782C22.4643 18.4536 21.8767 18.6909 21.176 18.6902C20.8427 18.6902 20.522 18.6319 20.214 18.5152C19.906 18.3986 19.635 18.2236 19.401 17.9902L17.525 16.1402L13.15 20.5152C13.1 20.5652 13.0627 20.6196 13.038 20.6782C13.0133 20.7369 13.0007 20.7992 13 20.8652C13 20.9986 13.05 21.1196 13.15 21.2282C13.25 21.3369 13.3667 21.3909 13.5 21.3902C13.5667 21.3902 13.6333 21.3736 13.7 21.3402C13.7667 21.3069 13.8167 21.2736 13.85 21.2402L17.25 17.8402L18.65 19.2402L15.275 22.6402C15.225 22.6902 15.1877 22.7446 15.163 22.8032C15.1383 22.8619 15.1257 22.9242 15.125 22.9902C15.125 23.1236 15.175 23.2402 15.275 23.3402C15.375 23.4402 15.4917 23.4902 15.625 23.4902C15.6917 23.4902 15.7583 23.4736 15.825 23.4402C15.8917 23.4069 15.9417 23.3736 15.975 23.3402L19.375 19.9652L20.775 21.3652L17.4 24.7652C17.35 24.7986 17.3127 24.8486 17.288 24.9152C17.2633 24.9819 17.2507 25.0486 17.25 25.1152C17.25 25.2486 17.3 25.3652 17.4 25.4652C17.5 25.5652 17.6167 25.6152 17.75 25.6152C17.8167 25.6152 17.8793 25.6026 17.938 25.5772C17.9967 25.5519 18.0507 25.5146 18.1 25.4652L21.5 22.0902L22.9 23.4902L19.5 26.8902C19.45 26.9402 19.4127 26.9942 19.388 27.0522C19.3633 27.1102 19.3507 27.1729 19.35 27.2402C19.35 27.3736 19.4043 27.4902 19.513 27.5902C19.6217 27.6902 19.7423 27.7402 19.875 27.7402ZM19.85 29.7402C19.2333 29.7402 18.6877 29.5362 18.213 29.1282C17.7383 28.7202 17.459 28.2076 17.375 27.5902C16.8083 27.5069 16.3333 27.2736 15.95 26.8902C15.5667 26.5069 15.3333 26.0319 15.25 25.4652C14.6833 25.3819 14.2127 25.1446 13.838 24.7532C13.4633 24.3619 13.234 23.8909 13.15 23.3402C12.5167 23.2569 12 22.9819 11.6 22.5152C11.2 22.0486 11 21.4986 11 20.8652C11 20.5319 11.0627 20.2112 11.188 19.9032C11.3133 19.5952 11.4923 19.3242 11.725 19.0902L17.525 13.3152L20.8 16.5902C20.8333 16.6402 20.8833 16.6779 20.95 16.7032C21.0167 16.7286 21.0833 16.7409 21.15 16.7402C21.3 16.7402 21.425 16.6946 21.525 16.6032C21.625 16.5119 21.675 16.3909 21.675 16.2402C21.675 16.1736 21.6623 16.1069 21.637 16.0402C21.6117 15.9736 21.5743 15.9236 21.525 15.8902L17.95 12.3152C17.7667 12.1152 17.5543 11.9696 17.313 11.8782C17.0717 11.7869 16.8173 11.7409 16.55 11.7402C16.3 11.7402 16.05 11.7862 15.8 11.8782C15.55 11.9702 15.325 12.1159 15.125 12.3152L11.6 15.8652C11.45 16.0152 11.325 16.1902 11.225 16.3902C11.125 16.5902 11.0583 16.7902 11.025 16.9902C10.9917 17.1902 10.9917 17.3946 11.025 17.6032C11.0583 17.8119 11.125 18.0076 11.225 18.1902L9.77499 19.6402C9.49166 19.2569 9.28332 18.8362 9.14999 18.3782C9.01666 17.9202 8.96666 17.4576 8.99999 16.9902C9.03332 16.5229 9.14999 16.0689 9.34999 15.6282C9.54999 15.1876 9.82499 14.7916 10.175 14.4402L13.7 10.9152C14.1 10.5319 14.546 10.2402 15.038 10.0402C15.53 9.84023 16.034 9.74023 16.55 9.74023C17.066 9.74023 17.5703 9.84023 18.063 10.0402C18.5557 10.2402 18.993 10.5319 19.375 10.9152L19.65 11.1902L19.925 10.9152C20.325 10.5319 20.771 10.2402 21.263 10.0402C21.755 9.84023 22.259 9.74023 22.775 9.74023C23.291 9.74023 23.7953 9.84023 24.288 10.0402C24.7807 10.2402 25.218 10.5319 25.6 10.9152L29.825 15.1402C30.2083 15.5236 30.5 15.9652 30.7 16.4652C30.9 16.9652 31 17.4736 31 17.9902C31 18.5069 30.9 19.0112 30.7 19.5032C30.5 19.9952 30.2083 20.4326 29.825 20.8152L21.625 28.9902C21.3917 29.2236 21.121 29.4069 20.813 29.5402C20.505 29.6736 20.184 29.7402 19.85 29.7402Z" fill="#FFD341"/>
</svg>
