<?xml version="1.0" encoding="UTF-8"?>
<svg version="1.1" xmlns="http://www.w3.org/2000/svg" width="60" height="60">
<path d="M0 0 C19.8 0 39.6 0 60 0 C60 19.8 60 39.6 60 60 C40.2 60 20.4 60 0 60 C0 40.2 0 20.4 0 0 Z " fill="#595959" transform="translate(0,0)"/>
<path d="M0 0 C0 0.99 0 1.98 0 3 C3.96 3.33 7.92 3.66 12 4 C12.45572917 6.31119792 12.91145833 8.62239583 13.3671875 10.93359375 C13.68042969 11.95646484 13.68042969 11.95646484 14 13 C14.66 13.33 15.32 13.66 16 14 C14.35 14 12.7 14 11 14 C11.185625 14.5775 11.37125 15.155 11.5625 15.75 C12 18 12 18 11.4375 19.8125 C10.76614284 22.22868904 10.76614284 22.22868904 12.125 25.375 C13 29 13 29 11.625 32.4375 C11.08875 33.283125 10.5525 34.12875 10 35 C9.34 34.67 8.68 34.34 8 34 C8 33.01 8 32.02 8 31 C8.66 30.67 9.32 30.34 10 30 C10 29.34 10 28.68 10 28 C8.68 27.34 7.36 26.68 6 26 C6.33 26.99 6.66 27.98 7 29 C6.34 29 5.68 29 5 29 C5 29.99 5 30.98 5 32 C5.66 32.33 6.32 32.66 7 33 C5.35 33.66 3.7 34.32 2 35 C2 34.34 2 33.68 2 33 C2.66 33 3.32 33 4 33 C3.505 30.525 3.505 30.525 3 28 C3.66 28 4.32 28 5 28 C5 27.01 5 26.02 5 25 C5.99 24.34 6.98 23.68 8 23 C7.67 22.01 7.34 21.02 7 20 C6.01 19.67 5.02 19.34 4 19 C4.474375 18.566875 4.94875 18.13375 5.4375 17.6875 C7.23686957 15.97690387 7.23686957 15.97690387 8 13 C7.34 13 6.68 13 6 13 C5.67 13.66 5.34 14.32 5 15 C5 14.34 5 13.68 5 13 C2.36 12.67 -0.28 12.34 -3 12 C-3.33 12.99 -3.66 13.98 -4 15 C-7.3 14.67 -10.6 14.34 -14 14 C-14.3125 11.3125 -14.3125 11.3125 -14 8 C-11.5625 5.25 -11.5625 5.25 -9 3 C-8.67 2.34 -8.34 1.68 -8 1 C-5.14829211 0.01665245 -3.10359391 0 0 0 Z " fill="#535353" transform="translate(27,9)"/>
<path d="M0 0 C4.66666667 0 9.33333333 0 14 0 C14.33 1.65 14.66 3.3 15 5 C13.68 5.33 12.36 5.66 11 6 C11 6.99 11 7.98 11 9 C9.68 9 8.36 9 7 9 C7 8.34 7 7.68 7 7 C6.360625 6.87625 5.72125 6.7525 5.0625 6.625 C4.381875 6.41875 3.70125 6.2125 3 6 C2.67 5.34 2.34 4.68 2 4 C1.01 4.495 1.01 4.495 0 5 C0 3.35 0 1.7 0 0 Z " fill="#9C9C9C" transform="translate(21,28)"/>
<path d="M0 0 C3.63 0.33 7.26 0.66 11 1 C10.67 2.32 10.34 3.64 10 5 C9.01 5.495 9.01 5.495 8 6 C7.67 6.99 7.34 7.98 7 9 C6.01 8.67 5.02 8.34 4 8 C4.66 8 5.32 8 6 8 C5.34 6.68 4.68 5.36 4 4 C2.7934375 4.2784375 2.7934375 4.2784375 1.5625 4.5625 C0.716875 4.706875 -0.12875 4.85125 -1 5 C-1.33 4.67 -1.66 4.34 -2 4 C-4.03039402 4.03222848 -6.06128092 4.06811619 -8.08984375 4.16015625 C-10 4 -10 4 -12 2 C-8.37 2 -4.74 2 -1 2 C-0.67 1.34 -0.34 0.68 0 0 Z " fill="#7C7460" transform="translate(24,21)"/>
<path d="M0 0 C1.65322266 0.01740234 1.65322266 0.01740234 3.33984375 0.03515625 C4.99693359 0.04869141 4.99693359 0.04869141 6.6875 0.0625 C7.54214844 0.07410156 8.39679687 0.08570312 9.27734375 0.09765625 C8.28734375 0.59265625 8.28734375 0.59265625 7.27734375 1.09765625 C6.62521083 3.1222888 6.62521083 3.1222888 6.27734375 5.09765625 C6.27734375 3.77765625 6.27734375 2.45765625 6.27734375 1.09765625 C5.61734375 1.09765625 4.95734375 1.09765625 4.27734375 1.09765625 C4.27734375 2.74765625 4.27734375 4.39765625 4.27734375 6.09765625 C1.46484375 6.78515625 1.46484375 6.78515625 -1.72265625 7.09765625 C-3.59765625 5.66015625 -3.59765625 5.66015625 -4.72265625 4.09765625 C-3.39739004 0.12185761 -3.39739004 0.12185761 0 0 Z " fill="#9B9B9B" transform="translate(42.72265625,27.90234375)"/>
<path d="M0 0 C1.32 0 2.64 0 4 0 C4 0.99 4 1.98 4 3 C5.98 3 7.96 3 10 3 C9.67 3.66 9.34 4.32 9 5 C7.35 4.67 5.7 4.34 4 4 C4 5.32 4 6.64 4 8 C5.65 8.33 7.3 8.66 9 9 C8.01 9.495 8.01 9.495 7 10 C6.67 10.66 6.34 11.32 6 12 C6 11.01 6 10.02 6 9 C3.30274481 10.88807863 1.86783571 12.19824644 0 15 C-1.32 14.34 -2.64 13.68 -4 13 C-3.01 12.34 -2.02 11.68 -1 11 C-1.33 10.34 -1.66 9.68 -2 9 C-0.68 9 0.64 9 2 9 C2.16677282 5.58343976 2.16677282 5.58343976 2 2 C1.34 1.34 0.68 0.68 0 0 Z " fill="#4E4E4E" transform="translate(23,9)"/>
<path d="M0 0 C0.99 1.32 1.98 2.64 3 4 C1.33333333 5.66666667 -0.33333333 7.33333333 -2 9 C-1.01 9.33 -0.02 9.66 1 10 C-0.65 10.33 -2.3 10.66 -4 11 C-4.36630156 7.06225823 -4.30233203 5.43460229 -2 2.125 C-1.34 1.42375 -0.68 0.7225 0 0 Z " fill="#4F4F4F" transform="translate(17,12)"/>
<path d="M0 0 C-0.33 1.65 -0.66 3.3 -1 5 C-2.65 5 -4.3 5 -6 5 C-6.33 3.68 -6.66 2.36 -7 1 C-4.53721199 -0.231394 -2.7204945 -0.07159196 0 0 Z " fill="#C2C2C2" transform="translate(45,28)"/>
<path d="M0 0 C1.98 0.495 1.98 0.495 4 1 C3.67 2.32 3.34 3.64 3 5 C1.68 5 0.36 5 -1 5 C-0.67 3.35 -0.34 1.7 0 0 Z " fill="#AFAFAF" transform="translate(16,28)"/>
<path d="M0 0 C0.928125 0.2784375 0.928125 0.2784375 1.875 0.5625 C4.04160178 1.23686176 4.04160178 1.23686176 6 0 C6 1.65 6 3.3 6 5 C4.02 5 2.04 5 0 5 C0 3.35 0 1.7 0 0 Z " fill="#C9C9C9" transform="translate(8,28)"/>
<path d="M0 0 C0.99 0.495 0.99 0.495 2 1 C1.67 1.66 1.34 2.32 1 3 C1.99 3.33 2.98 3.66 4 4 C4 5.32 4 6.64 4 8 C3.01 8 2.02 8 1 8 C0.67 5.36 0.34 2.72 0 0 Z " fill="#525252" transform="translate(27,34)"/>
<path d="M0 0 C0.99 0 1.98 0 3 0 C2.67 2.31 2.34 4.62 2 7 C1.01 7 0.02 7 -1 7 C-1.04254356 5.00045254 -1.04080783 2.99958364 -1 1 C-0.67 0.67 -0.34 0.34 0 0 Z " fill="#4E4E4E" transform="translate(43,34)"/>
<path d="M0 0 C0.33 0.66 0.66 1.32 1 2 C1.66 2.33 2.32 2.66 3 3 C3 3.66 3 4.32 3 5 C0.03 4.505 0.03 4.505 -3 4 C-3 3.34 -3 2.68 -3 2 C-2.01 2 -1.02 2 0 2 C0 1.34 0 0.68 0 0 Z " fill="#505050" transform="translate(27,23)"/>
<path d="M0 0 C2.31 0 4.62 0 7 0 C7 0.99 7 1.98 7 3 C5.02 3 3.04 3 1 3 C0.67 2.01 0.34 1.02 0 0 Z " fill="#987E31" transform="translate(25,22)"/>
</svg>
